# Blender v2.78 (sub 0) OBJ File: '6.blend'
# www.blender.org
mtllib Bowtie_01.mtl
o Bowtie_01_Cube.031
v -1.050103 0.732511 0.532387
v -1.050103 2.832717 0.532387
v -1.050103 0.732511 -0.413616
v -1.050103 2.832717 -0.413616
v 1.050103 0.732511 0.532387
v 1.050103 2.832717 0.532387
v 1.050103 0.732511 -0.413616
v 1.050103 2.832717 -0.413616
v 0.000000 0.630016 -0.413616
v 0.000000 2.979219 -0.413616
v 0.000000 0.630016 0.832183
v 0.000000 2.979219 0.832183
v -1.329678 1.782614 0.532387
v -1.329678 1.782614 -0.413616
v 1.329678 1.782614 -0.413616
v 1.329678 1.782614 0.532387
v -0.000000 1.782614 0.832183
v -0.000000 1.782614 -0.413616
v -1.167110 0.979721 -0.221135
v -1.167110 0.979721 0.207268
v -1.437086 1.782614 0.373662
v -1.167110 2.585506 0.207268
v -1.167110 2.585506 -0.221135
v -1.437086 1.782614 -0.221135
v 1.437086 1.782614 -0.221135
v 1.167110 0.979721 -0.221135
v 1.167110 0.979721 0.207268
v 1.167110 2.585506 -0.221135
v 1.167110 2.585506 0.207268
v 1.437086 1.782614 0.373662
v -3.268548 0.267295 -0.125855
v -3.268548 0.267295 0.111988
v -3.531924 1.782614 -0.040016
v -3.268548 3.297932 0.111988
v -3.268548 3.297932 -0.125855
v -3.531924 1.782614 -0.276865
v 3.531924 1.782614 -0.276865
v 3.268548 0.267295 -0.125855
v 3.268548 0.267295 0.111988
v 3.268548 3.297932 -0.125855
v 3.268548 3.297932 0.111988
v 3.531924 1.782614 -0.040016
v -4.455997 0.052044 -0.169058
v -4.455997 0.052044 0.155191
v -5.017818 1.782614 -0.017915
v -4.455997 3.513183 0.155191
v -4.455997 3.513183 -0.169058
v -5.017818 1.782614 -0.298966
v 5.017818 1.782614 -0.298966
v 4.455997 0.052044 -0.169058
v 4.455997 0.052044 0.155191
v 4.455997 3.513183 -0.169058
v 4.455997 3.513183 0.155191
v 5.017818 1.782614 -0.017915
vn 0.9153 0.2960 0.2733
vn 0.0000 0.0000 -1.0000
vn 0.9153 -0.2960 0.2733
vn -0.2460 0.0306 0.9688
vn 0.0971 -0.9953 0.0000
vn -0.1382 0.9904 0.0000
vn 0.1382 0.9904 0.0000
vn -0.0971 -0.9953 0.0000
vn 0.2460 0.0306 0.9688
vn 0.2455 -0.0312 0.9689
vn -0.2455 -0.0312 0.9689
vn -0.9039 0.4278 0.0000
vn 0.8973 0.2661 -0.3522
vn -0.1149 0.0326 0.9928
vn 0.1149 0.0326 0.9928
vn -0.0016 -0.0646 -0.9979
vn 0.1149 -0.0326 0.9928
vn 0.8973 -0.2661 -0.3522
vn -0.8973 -0.2661 -0.3522
vn -0.9153 -0.2960 0.2733
vn -0.9039 -0.4278 0.0000
vn 0.9039 -0.4278 0.0000
vn -0.8973 0.2661 -0.3522
vn -0.9153 0.2960 0.2733
vn 0.9039 0.4278 0.0000
vn -0.0159 -0.1037 0.9945
vn -0.0307 -0.0784 -0.9964
vn -0.0159 0.1037 0.9945
vn 0.1784 -0.9840 0.0000
vn -0.1149 -0.0326 0.9928
vn -0.3211 -0.9471 0.0000
vn 0.3211 0.9471 0.0000
vn 0.0016 0.0646 -0.9979
vn -0.3211 0.9471 0.0000
vn 0.0016 -0.0646 -0.9979
vn -0.0016 0.0646 -0.9979
vn 0.3211 -0.9471 0.0000
vn -0.9511 0.3088 0.0000
vn 0.9511 0.3088 0.0000
vn 0.9511 -0.3088 0.0000
vn -0.9511 -0.3088 0.0000
vn 0.0159 -0.1037 0.9945
vn 0.0159 0.1037 0.9945
vn -0.1784 -0.9840 0.0000
vn 0.1784 0.9840 0.0000
vn 0.0307 0.0784 -0.9964
vn -0.1784 0.9840 0.0000
vn 0.0307 -0.0784 -0.9964
vn -0.0307 0.0784 -0.9964
usemtl F44336
s off
f 6//1 16//1 30//1 29//1
f 18//2 10//2 8//2 15//2
f 16//3 5//3 27//3 30//3
f 17//4 12//4 2//4 13//4
f 9//5 7//5 5//5 11//5
f 10//6 4//6 2//6 12//6
f 8//7 10//7 12//7 6//7
f 3//8 9//8 11//8 1//8
f 16//9 6//9 12//9 17//9
f 14//2 4//2 10//2 18//2
f 3//2 14//2 18//2 9//2
f 5//10 16//10 17//10 11//10
f 11//11 17//11 13//11 1//11
f 2//12 4//12 23//12 22//12
f 9//2 18//2 15//2 7//2
f 15//13 8//13 28//13 25//13
f 21//14 22//14 34//14 33//14
f 29//15 30//15 42//15 41//15
f 26//16 25//16 37//16 38//16
f 30//17 27//17 39//17 42//17
f 7//18 15//18 25//18 26//18
f 14//19 3//19 19//19 24//19
f 1//20 13//20 21//20 20//20
f 3//21 1//21 20//21 19//21
f 5//22 7//22 26//22 27//22
f 4//23 14//23 24//23 23//23
f 13//24 2//24 22//24 21//24
f 8//25 6//25 29//25 28//25
f 41//26 42//26 54//26 53//26
f 38//27 37//27 49//27 50//27
f 42//28 39//28 51//28 54//28
f 31//29 32//29 44//29 43//29
f 20//30 21//30 33//30 32//30
f 27//31 26//31 38//31 39//31
f 22//32 23//32 35//32 34//32
f 23//33 24//33 36//33 35//33
f 28//34 29//34 41//34 40//34
f 24//35 19//35 31//35 36//35
f 25//36 28//36 40//36 37//36
f 19//37 20//37 32//37 31//37
f 45//38 46//38 47//38 48//38
f 49//39 52//39 53//39 54//39
f 50//40 49//40 54//40 51//40
f 44//41 45//41 48//41 43//41
f 33//42 34//42 46//42 45//42
f 32//43 33//43 45//43 44//43
f 39//44 38//44 50//44 51//44
f 34//45 35//45 47//45 46//45
f 35//46 36//46 48//46 47//46
f 40//47 41//47 53//47 52//47
f 36//48 31//48 43//48 48//48
f 37//49 40//49 52//49 49//49
